# xmcd
#
# Track frame offsets: 
#        150
#        19617
#        38688
#        74228
#        93974
#        123795
#        139842
#
# Disc length: 2398 seconds
#
# Revision: 0
# Processed by: cddbd v1.5.2PL0 Copyright (c) Steve Scherf et al.
# Submitted via: ExactAudioCopy v0.99pb4
#
DISCID=59095c07
DTITLE=Jeff Healey Band - Live In Paradiso CD 1
DYEAR=1988
DGENRE=Blues
TTITLE0=Further On Up The Road
TTITLE1=My Little Girl
TTITLE2=Blue Jean Blues
TTITLE3=I Need To Be Loved
TTITLE4=White Room
TTITLE5=Don't Let Your Change Go By
TTITLE6=Like A Rolling Stone
EXTD=
EXTT0=
EXTT1=
EXTT2=
EXTT3=
EXTT4=
EXTT5=
EXTT6=
PLAYORDER=
